<svg width="21" height="20" viewBox="0 0 21 20" fill="none" xmlns="http://www.w3.org/2000/svg">
<mask id="mask0_0_165" style="mask-type:luminance" maskUnits="userSpaceOnUse" x="3" y="3" width="15" height="15">
<path fill-rule="evenodd" clip-rule="evenodd" d="M3.5 3.76746H17.8964V17.4806H3.5V3.76746Z" fill="white"/>
</mask>
<g mask="url(#mask0_0_165)">
<path fill-rule="evenodd" clip-rule="evenodd" d="M4.7839 10.1815C5.76979 13.2489 9.66484 15.7291 10.7 16.343C11.7386 15.7227 15.6618 13.2151 16.616 10.1843C17.2426 8.22518 16.661 5.74357 14.3503 4.99888C13.2308 4.63954 11.9249 4.85823 11.0234 5.55581C10.835 5.70067 10.5734 5.70349 10.3835 5.56003C9.42857 4.84206 8.18108 4.6318 7.044 4.99888C4.73679 5.74287 4.15734 8.22447 4.7839 10.1815ZM10.6994 17.48C10.6122 17.48 10.5257 17.4589 10.4469 17.416C10.2268 17.2958 5.0421 14.4379 3.77844 10.5042C3.77774 10.5042 3.77774 10.5035 3.77774 10.5035C2.98452 8.02682 3.86775 4.91444 6.71924 3.99535C8.05814 3.56217 9.51729 3.75274 10.6973 4.49744C11.8407 3.77454 13.3596 3.57483 14.6718 3.99535C17.5261 4.91584 18.4121 8.02752 17.6196 10.5035C16.3967 14.3922 11.174 17.2929 10.9525 17.4146C10.8738 17.4582 10.7866 17.48 10.6994 17.48Z" fill="#B8B8B8"/>
</g>
<path fill-rule="evenodd" clip-rule="evenodd" d="M14.8584 9.12957C14.5863 9.12957 14.3556 8.92072 14.3331 8.64506C14.2867 8.06703 13.8999 7.57901 13.3493 7.40109C13.0716 7.31108 12.9197 7.01363 13.009 6.73727C13.0997 6.46021 13.3943 6.30972 13.6728 6.39692C14.6313 6.70703 15.3028 7.5558 15.3851 8.55927C15.4083 8.8497 15.1924 9.10426 14.902 9.12746C14.8872 9.12887 14.8732 9.12957 14.8584 9.12957Z" fill="#B8B8B8"/>
</svg>
