<svg width="16" height="16" viewBox="0 0 16 16" fill="none" xmlns="http://www.w3.org/2000/svg">
<path opacity="0.15" fill-rule="evenodd" clip-rule="evenodd" d="M8.00002 14C10.9455 12.6667 13.3334 10.2789 13.3334 7.33333C13.3334 4.38781 10.9455 2 8.00002 2C5.0545 2 2.66669 4.38781 2.66669 7.33333C2.66669 10.2789 5.0545 12.6667 8.00002 14ZM8.00002 9.33333C9.10459 9.33333 10 8.4379 10 7.33333C10 6.22876 9.10459 5.33333 8.00002 5.33333C6.89545 5.33333 6.00002 6.22876 6.00002 7.33333C6.00002 8.4379 6.89545 9.33333 8.00002 9.33333Z" fill="url(#paint0_linear_0_78)"/>
<path d="M13.3334 7.33333C13.3334 10.2789 10.9455 12.6667 8.00002 14C5.0545 12.6667 2.66669 10.2789 2.66669 7.33333C2.66669 4.38781 5.0545 2 8.00002 2C10.9455 2 13.3334 4.38781 13.3334 7.33333Z" fill="url(#paint1_linear_0_78)"/>
<path d="M10 7.33333C10 8.4379 9.10459 9.33333 8.00002 9.33333C6.89545 9.33333 6.00002 8.4379 6.00002 7.33333C6.00002 6.22876 6.89545 5.33333 8.00002 5.33333C9.10459 5.33333 10 6.22876 10 7.33333Z" fill="url(#paint2_linear_0_78)"/>
<circle cx="8" cy="8" r="2" fill="white"/>
<defs>
<linearGradient id="paint0_linear_0_78" x1="13.1962" y1="10.6538" x2="2.27196" y2="10.523" gradientUnits="userSpaceOnUse">
<stop stop-color="#176FF2"/>
<stop offset="1" stop-color="#196EEE"/>
</linearGradient>
<linearGradient id="paint1_linear_0_78" x1="13.1962" y1="10.6538" x2="2.27196" y2="10.523" gradientUnits="userSpaceOnUse">
<stop stop-color="#176FF2"/>
<stop offset="1" stop-color="#196EEE"/>
</linearGradient>
<linearGradient id="paint2_linear_0_78" x1="13.1962" y1="10.6538" x2="2.27196" y2="10.523" gradientUnits="userSpaceOnUse">
<stop stop-color="#176FF2"/>
<stop offset="1" stop-color="#196EEE"/>
</linearGradient>
</defs>
</svg>
