<svg width="33" height="32" viewBox="0 0 33 32" fill="none" xmlns="http://www.w3.org/2000/svg">
<g clip-path="url(#clip0_0_46)">
<path d="M16.4998 20.3333C18.5249 20.3333 20.1665 21.9749 20.1665 24C20.1665 26.025 18.5249 27.6666 16.4998 27.6666C14.4748 27.6666 12.8332 26.025 12.8332 24C12.8332 21.9749 14.4748 20.3333 16.4998 20.3333ZM16.4998 22.3333C15.5794 22.3333 14.8332 23.0795 14.8332 24C14.8332 24.9204 15.5794 25.6666 16.4998 25.6666C17.4203 25.6666 18.1665 24.9204 18.1665 24C18.1665 23.0795 17.4203 22.3333 16.4998 22.3333ZM16.4999 15.0001C20.0168 15.0001 23.0625 17.0172 24.5432 19.9576L23.0289 21.4703C22.0146 18.8546 19.4739 17.0001 16.4999 17.0001C13.526 17.0001 10.9852 18.8546 9.97103 21.4703L8.45721 19.9566C9.93812 17.0167 12.9835 15.0001 16.4999 15.0001ZM16.5 9.66685C21.4805 9.66685 25.8677 12.2071 28.4366 16.0626L26.9895 17.51C24.8149 14.0027 20.9302 11.6669 16.5 11.6669C12.0698 11.6669 8.18522 14.0027 6.01054 17.51L4.56345 16.0626C7.1324 12.2071 11.5196 9.66685 16.5 9.66685ZM16.4998 4.33325C22.9509 4.33325 28.6765 7.43929 32.2628 12.2375L30.8323 13.6684C27.6236 9.22502 22.3994 6.33325 16.4998 6.33325C10.6007 6.33325 5.37686 9.22459 2.16815 13.6674L0.737671 12.2365C4.32397 7.43886 10.0492 4.33325 16.4998 4.33325Z" fill="#B8B8B8"/>
</g>
<defs>
<clipPath id="clip0_0_46">
<rect width="32" height="32" fill="white" transform="translate(0.5)"/>
</clipPath>
</defs>
</svg>
